<?xml version="1.0" encoding="UTF-8" standalone="no"?>
<!-- Created with Inkscape (http://www.inkscape.org/) -->

<svg
   width="200mm"
   height="200mm"
   viewBox="0 0 200 200"
   version="1.1"
   id="svg1"
   xmlns="http://www.w3.org/2000/svg"
   xmlns:svg="http://www.w3.org/2000/svg">
  <defs
     id="defs1">
    <rect
       x="121.29635"
       y="71.186342"
       width="859.41601"
       height="899.11178"
       id="rect1" />
  </defs>
  <g
     id="layer1">
    <path
       style="fill:#000000;stroke:none;stroke-width:0.264583"
       d="m 75,92 26,-52.999999 h 5 L 132,92 H 114 L 103.5,60.566675 93.098465,91.999997 Z"
       id="path31" />
    <path
       style="fill:#000000;stroke:#000000;stroke-width:0.264583"
       d="m 74.000001,97.000004 -7,6.999996 v 4 l 7,7 H 133 l 7,-7 v -4 l -7,-6.999996 z"
       id="path7-4-4-2-5" />
    <path
       style="fill:#000000;stroke:#000000;stroke-width:0.264583"
       d="m 74.000001,16 -7,7 v 4 l 7,7 H 133 l 7,-7 v -4 l -7,-7 z"
       id="path7-4-4-2" />
    <path
       style="fill:#000000;stroke:#000000;stroke-width:0.264583"
       d="m 135.13229,95.13229 7,7 h 4 l 7,-7 V 36.132292 l -7,-7 h -4 l -7,7 z"
       id="path7-4-4" />
    <path
       style="fill:#000000;stroke:#000000;stroke-width:0.264583"
       d="m 54,176 7,7 h 4 l 6.999999,-7 V 117 L 65,110 h -4 l -7,7 z"
       id="path7" />
    <path
       style="fill:#000000;stroke:#000000;stroke-width:0.264583"
       d="M 54,94.999999 61,102 h 4 l 6.999999,-7.000001 v -59 l -6.999999,-7 h -4 l -7,7 z"
       id="path7-4" />
    <path
       style="fill:#000000;stroke:none;stroke-width:0.264583"
       d="m 75.000001,121 v 10 L 128,184 h 10 l 3,-3 V 171 L 88.000002,118 H 78 Z"
       id="path18" />
    <path
       id="path32"
       style="fill:#000000;stroke:none;stroke-width:0.264583"
       d="M 101.00004 39.000203 L 76.999951 92.000069 L 93.999947 92.000069 L 93.999947 89.000252 L 94.999886 89.000252 L 94.999886 85.999919 L 95.999825 85.999919 L 95.999825 83.000102 L 96.999764 83.000102 L 96.999764 79.999768 L 98.00022 79.999768 L 98.00022 76.999951 L 99.000159 76.999951 L 99.000159 74.000134 L 100.0001 74.000134 L 100.0001 70.999801 L 101.00004 70.999801 L 101.00004 67.999984 L 101.99998 67.999984 L 101.99998 65.000167 L 102.99991 65.000167 L 103.99985 65.000167 L 104.99979 65.000167 L 104.99979 67.999984 L 106.00025 67.999984 L 106.00025 70.999801 L 107.00019 70.999801 L 107.00019 74.000134 L 108.00013 74.000134 L 108.00013 76.999951 L 109.00007 76.999951 L 109.00007 79.999768 L 110 79.999768 L 110 83.000102 L 110.99994 83.000102 L 110.99994 85.999919 L 111.99988 85.999919 L 111.99988 89.000252 L 112.99982 89.000252 L 112.99982 92.000069 L 129.99982 92.000069 L 106.00025 39.000203 L 101.00004 39.000203 z " />
    <path
       style="fill:#b3b3b3;stroke:none;stroke-width:0.264583"
       d="m 93.999999,89.999999 h -0.999998 v 1 H 90.999999 V 92 h 3 z"
       id="path33" />
    <path
       style="fill:#b3b3b3;stroke:none;stroke-width:0.264583"
       d="m 113,89.999999 h 1 l -0.008,1 H 116 V 92 l -3.00018,6.9e-5 z"
       id="path34" />
    <path
       style="fill:#000000;stroke:none;stroke-width:0.264583"
       d="m 94.999999,89.000001 c 0,0 0,2.999999 -4,2.999999 -3.999999,0 0,-2.999999 0,-2.999999 z"
       id="path35" />
    <path
       style="fill:#000000;stroke:none;stroke-width:0.264583"
       d="m 112,89.000001 c 0,0 0,2.999999 4,2.999999 4,0 1,-2.999999 1,-2.999999 z"
       id="path36" />
  </g>
</svg>
