<?xml version="1.0" encoding="UTF-8" standalone="no"?>
<!-- Created with Inkscape (http://www.inkscape.org/) -->

<svg
   width="1144.335mm"
   height="183.56799mm"
   viewBox="0 0 1144.3349 183.56799"
   version="1.1"
   id="svg1"
   xmlns="http://www.w3.org/2000/svg"
   xmlns:svg="http://www.w3.org/2000/svg">
  <defs
     id="defs1" />
  <g
     id="layer1"
     transform="translate(-53.867709,-15.752683)">
    <path
       style="fill:#000000;stroke:#000000;stroke-width:0.264583"
       d="m 1117,84.000004 -7,6.999997 v 4 L 1117,102 h 59 l 7,-6.999999 v -4 l -7,-6.999997 z"
       id="path7-4-4-2-5-2-3" />
    <path
       id="path32-8"
       style="fill:#000000;stroke:none;stroke-width:0.782898"
       d="M 791.19926,15.984383 729.44141,196.32033 h 43.74498 v -10.20708 h 2.57307 v -10.20888 h 2.57309 v -10.20706 h 2.57305 v -10.20889 h 2.57442 v -10.20707 h 2.57307 v -10.20711 h 2.57309 v -10.20885 h 2.57308 v -10.20711 h 2.57307 v -10.2071 h 2.57306 2.57308 2.57307 v 10.2071 h 2.57443 v 10.20711 h 2.57308 v 10.20885 h 2.57307 v 10.20711 h 2.57309 v 10.20707 h 2.57305 v 10.20889 h 2.57308 v 10.20706 h 2.57309 v 10.20888 h 2.57307 v 10.20708 h 43.74498 L 804.06597,15.984383 Z" />
    <path
       style="fill:#000000;stroke:#000000;stroke-width:0.264583"
       d="m 694.92621,176.11668 7,7.00001 h 4 l 7,-7.00001 v -59 l -7,-7 h -4 l -7,7 z"
       id="path7-4-6-0-2-9" />
    <path
       style="fill:#000000;stroke:#000000;stroke-width:0.264583"
       d="m 695.02864,95.11667 7,7.00001 h 4 l 7,-7.00001 V 36.116673 l -7,-7 h -4 l -7,7 z"
       id="path7-4-6-0-2" />
    <path
       style="fill:#000000;stroke:#000000;stroke-width:0.264583"
       d="m 633.69149,178.18805 -7,6.99999 v 4 l 7,7 h 59 l 7,-7 v -4 l -7,-6.99999 z"
       id="path7-4-4-2-5-5-2-4" />
    <path
       style="fill:#000000;stroke:#000000;stroke-width:0.264583"
       d="m 633.79392,16.116674 -7,7 v 4 l 7,6.999999 h 59 l 7,-6.999999 v -4 l -7,-7 z"
       id="path7-4-4-2-3-9" />
    <path
       style="fill:#000000;stroke:#000000;stroke-width:0.264583"
       d="m 613.79392,176.11668 7,7 h 4 l 7,-7 v -59 l -7,-7 h -4 l -7,7 z"
       id="path7-5-2" />
    <path
       style="fill:#000000;stroke:#000000;stroke-width:0.264583"
       d="m 613.79392,95.11667 7,7.00001 h 4 l 7,-7.00001 V 36.116673 l -7,-7 h -4 l -7,7 z"
       id="path7-4-6-0" />
    <path
       style="fill:#000000;stroke:#000000;stroke-width:0.264583"
       d="m 1176.9683,162.88497 7,7.00001 h 4 l 7,-7.00001 v -59 l -7,-6.999986 h -4 l -7,6.999986 z"
       id="path7-4-6-0-2-9-1" />
    <path
       style="fill:#000000;stroke:#000000;stroke-width:0.264583"
       d="m 1177.0707,81.884974 7,7.00001 h 4 l 7,-7.00001 v -59 l -7,-7 h -4 l -7,7 z"
       id="path7-4-6-0-2-1" />
    <path
       style="fill:#000000;stroke:#000000;stroke-width:0.264583"
       d="m 1095.8359,162.88497 7,7 h 4 l 7,-7 v -59 l -7,-6.999986 h -4 l -7,6.999986 z"
       id="path7-5-2-5" />
    <path
       style="fill:#000000;stroke:#000000;stroke-width:0.264583"
       d="m 1095.8359,81.884974 7,7.00001 h 4 l 7,-7.00001 v -59 l -7,-7 h -4 l -7,7 z"
       id="path7-4-6-0-97" />
    <path
       style="fill:#000000;stroke:#000000;stroke-width:0.264583"
       d="m 1014.9976,178.18805 -7,6.99999 v 4 l 7,7 h 59 l 7,-7 v -4 l -7,-6.99999 z"
       id="path7-4-4-2-5-5-2-4-4" />
    <path
       style="fill:#000000;stroke:#000000;stroke-width:0.264583"
       d="m 1015.1001,16.116673 -7,7 v 4 l 7,7 h 59 l 7,-7 v -4 l -7,-7 z"
       id="path7-4-4-2-3-9-9" />
    <path
       style="fill:#000000;stroke:#000000;stroke-width:0.264583"
       d="m 995.10007,176.11668 7.00003,7 h 4 l 7,-7 v -59 l -7,-7 h -4 l -7.00003,7 z"
       id="path7-5-2-0" />
    <path
       style="fill:#000000;stroke:#000000;stroke-width:0.264583"
       d="m 995.10007,95.116673 7.00003,7.000007 h 4 l 7,-7.000007 v -59 l -7,-7 h -4 l -7.00003,7 z"
       id="path7-4-6-0-9" />
    <path
       style="fill:#000000;stroke:#000000;stroke-width:0.264583"
       d="m 481.42795,173.86771 7,7 h 4 l 7,-7 v -59 l -7,-7 h -4 l -7,7 z"
       id="path7-4-4-0-7" />
    <path
       style="fill:#000000;stroke:none;stroke-width:0.264583"
       d="m 75,92 26,-52.999999 h 5 L 132,92 H 114 L 103.5,60.566675 93.098465,91.999997 Z"
       id="path31" />
    <path
       style="fill:#000000;stroke:#000000;stroke-width:0.264583"
       d="m 74.000001,97.000004 -7,6.999996 v 4 l 7,7 H 133 l 7,-7 v -4 l -7,-6.999996 z"
       id="path7-4-4-2-5" />
    <path
       style="fill:#000000;stroke:#000000;stroke-width:0.264583"
       d="m 74.000001,16 -7,7 v 4 l 7,7 H 133 l 7,-7 v -4 l -7,-7 z"
       id="path7-4-4-2" />
    <path
       style="fill:#000000;stroke:#000000;stroke-width:0.264583"
       d="m 135.13229,95.13229 7,7 h 4 l 7,-7 V 36.132292 l -7,-7 h -4 l -7,7 z"
       id="path7-4-4" />
    <path
       style="fill:#000000;stroke:#000000;stroke-width:0.264583"
       d="m 54,176 7,7 h 4 l 6.999999,-7 V 117 L 65,110 h -4 l -7,7 z"
       id="path7" />
    <path
       style="fill:#000000;stroke:#000000;stroke-width:0.264583"
       d="M 54,94.999999 61,102 h 4 l 6.999999,-7.000001 v -59 l -6.999999,-7 h -4 l -7,7 z"
       id="path7-4" />
    <path
       style="fill:#000000;stroke:#000000;stroke-width:0.264583"
       d="m 187.60243,97.00001 -7,6.99999 v 4 l 7,7 h 59 l 7,-7 v -4 l -7,-6.99999 z"
       id="path7-4-4-2-5-5" />
    <path
       style="fill:#000000;stroke:#000000;stroke-width:0.264583"
       d="m 187.5,178.07137 -7,6.99999 v 4 l 7,7 h 59 l 7,-7 v -4 l -7,-6.99999 z"
       id="path7-4-4-2-5-5-2" />
    <path
       style="fill:#000000;stroke:#000000;stroke-width:0.264583"
       d="m 187.60243,16.000004 -7,7 v 4 l 7,7 h 59 l 7,-7 v -4 l -7,-7 z"
       id="path7-4-4-2-3" />
    <path
       style="fill:#000000;stroke:#000000;stroke-width:0.264583"
       d="m 167.60243,176 7,7 h 4 l 7,-7 v -59 l -7,-7 h -4 l -7,7 z"
       id="path7-5" />
    <path
       style="fill:#000000;stroke:#000000;stroke-width:0.264583"
       d="m 167.60243,95 7,7 h 4 l 7,-7 V 36.000003 l -7,-7 h -4 l -7,7 z"
       id="path7-4-6" />
    <path
       style="fill:#000000;stroke:#000000;stroke-width:0.264583"
       d="m 533.66215,97.116677 -7,7.000003 v 4 l 7,7 h 59 l 7,-7 v -4 l -7,-7.000003 z"
       id="path7-4-4-2-5-5-0" />
    <path
       style="fill:#000000;stroke:#000000;stroke-width:0.264583"
       d="m 533.55972,178.18805 -7,6.99999 v 4 l 7,7 h 59 l 7,-7 v -4 l -7,-6.99999 z"
       id="path7-4-4-2-5-5-2-7" />
    <path
       style="fill:#000000;stroke:#000000;stroke-width:0.264583"
       d="m 533.66215,16.116667 -7,7 v 4 l 7,7 h 59 l 7,-7 v -4 l -7,-7 z"
       id="path7-4-4-2-3-8" />
    <path
       style="fill:#000000;stroke:#000000;stroke-width:0.264583"
       d="m 513.66215,176.11668 7,7 h 4 l 7,-7 v -59 l -7,-7 h -4 l -7,7 z"
       id="path7-5-6" />
    <path
       style="fill:#000000;stroke:#000000;stroke-width:0.264583"
       d="m 513.66215,95.116667 7,7.000013 h 4 l 7,-7.000013 v -59 l -7,-7 h -4 l -7,7 z"
       id="path7-4-6-8" />
    <path
       style="fill:#000000;stroke:#000000;stroke-width:0.264583"
       d="m 287.97014,97.000012 -7,6.999988 v 4 l 7,7 h 59 l 7,-7 v -4 l -7,-6.999988 z"
       id="path7-4-4-2-5-5-3" />
    <path
       style="fill:#000000;stroke:#000000;stroke-width:0.264583"
       d="m 287.97014,16.000002 -7,7 v 4 l 7,7 h 59 l 7,-7 v -4 l -7,-7 z"
       id="path7-4-4-2-3-6" />
    <path
       style="fill:#000000;stroke:#000000;stroke-width:0.264583"
       d="m 267.97014,176 7,7 h 4 l 7,-7 v -59 l -7,-7 h -4 l -7,7 z"
       id="path7-5-0" />
    <path
       style="fill:#000000;stroke:#000000;stroke-width:0.264583"
       d="m 267.97014,95.000001 7,6.999999 h 4 l 7,-6.999999 v -59 l -7,-7 h -4 l -7,7 z"
       id="path7-4-6-6" />
    <path
       style="fill:#000000;stroke:#000000;stroke-width:0.264583"
       d="m 368.33785,176 7,7 h 4 l 7,-7 v -59 l -7,-7 h -4 l -7,7 z"
       id="path7-5-0-8" />
    <path
       style="fill:#000000;stroke:#000000;stroke-width:0.264583"
       d="m 368.33785,95.000002 7,6.999998 h 4 l 7,-6.999998 v -59 l -7,-7 h -4 l -7,7 z"
       id="path7-4-6-6-7" />
    <path
       style="fill:#000000;stroke:none;stroke-width:0.264583"
       d="m 75.000001,121 v 10 L 128,184 h 10 l 3,-3 V 171 L 88.000002,118 H 78 Z"
       id="path18" />
    <path
       style="fill:#000000;stroke:#000000;stroke-width:0.264583"
       d="m 896.39513,97.116673 -7,6.999997 v 4 l 7,7 h 59 l 7,-7 v -4 l -7,-6.999997 z"
       id="path7-4-4-2-5-2" />
    <path
       style="fill:#000000;stroke:#000000;stroke-width:0.264583"
       d="m 896.39513,16.116673 -7,7 v 4 l 7,7 h 59 l 7,-7 v -4 l -7,-7 z"
       id="path7-4-4-2-72" />
    <path
       style="fill:#000000;stroke:#000000;stroke-width:0.264583"
       d="m 957.52742,95.248963 7,6.999997 h 4 l 7,-6.999997 v -59 l -7,-7 h -4 l -7,7 z"
       id="path7-4-4-26" />
    <path
       style="fill:#000000;stroke:#000000;stroke-width:0.264583"
       d="m 876.39513,176.11667 7,7 h 4 l 7,-7 v -59 l -7,-7 h -4 l -7,7 z"
       id="path7-1" />
    <path
       style="fill:#000000;stroke:#000000;stroke-width:0.264583"
       d="m 876.39513,95.116673 7,6.999997 h 4 l 7,-6.999997 v -59 l -7,-7 h -4 l -7,7 z"
       id="path7-4-0" />
    <path
       style="fill:#000000;stroke:none;stroke-width:0.264583"
       d="m 897.39513,121.11667 v 10 l 53,53 h 10 l 3,-3 v -10 l -53,-53 h -10 z"
       id="path18-6" />
    <path
       id="path32"
       style="fill:#000000;stroke:none;stroke-width:0.264583"
       d="M 101.00004,39.000203 76.999951,92.000069 h 16.999996 v -2.999817 h 0.999939 v -3.000333 h 0.999939 v -2.999817 h 0.999939 v -3.000334 h 1.000456 v -2.999817 h 0.999939 v -2.999817 h 0.999941 v -3.000333 h 0.99994 v -2.999817 h 0.99994 v -2.999817 h 0.99993 0.99994 0.99994 v 2.999817 h 1.00046 v 2.999817 h 0.99994 v 3.000333 h 0.99994 v 2.999817 h 0.99994 v 2.999817 H 110 v 3.000334 h 0.99994 v 2.999817 h 0.99994 v 3.000333 h 0.99994 v 2.999817 h 17 L 106.00025,39.000203 Z" />
    <path
       style="fill:#b3b3b3;stroke:none;stroke-width:0.264583"
       d="m 93.999999,89.999999 h -0.999998 v 1 H 90.999999 V 92 h 3 z"
       id="path33" />
    <path
       style="fill:#b3b3b3;stroke:none;stroke-width:0.264583"
       d="m 113,89.999999 h 1 l -0.008,1 H 116 V 92 l -3.00018,6.9e-5 z"
       id="path34" />
    <path
       style="fill:#000000;stroke:none;stroke-width:0.264583"
       d="m 94.999999,89.000001 c 0,0 0,2.999999 -4,2.999999 -3.999999,0 0,-2.999999 0,-2.999999 z"
       id="path35" />
    <path
       style="fill:#000000;stroke:none;stroke-width:0.264583"
       d="m 112,89.000001 c 0,0 0,2.999999 4,2.999999 4,0 1,-2.999999 1,-2.999999 z"
       id="path36" />
    <path
       style="fill:#000000;stroke:#000000;stroke-width:0.264583"
       d="m 481.42795,92.999999 7,7 h 4 l 7,-7 v -59 l -7,-7 h -4 l -7,7 z"
       id="path7-4-4-0" />
    <path
       style="fill:#000000;stroke:#000000;stroke-width:0.264583"
       d="m 400.29566,173.86771 7,7 h 4 l 7,-7 v -59 l -7,-7 h -4 l -7,7 z"
       id="path7-6" />
    <path
       style="fill:#000000;stroke:#000000;stroke-width:0.264583"
       d="m 400.29566,92.867709 7,7 h 4 l 7,-7 v -59 l -7,-7 h -4 l -7,7 z"
       id="path7-4-1" />
    <path
       style="fill:#000000;stroke:#000000;stroke-width:0.264583"
       d="m 420.5,16 -7,7 v 4 l 7,7 h 59 l 7,-7 v -4 l -7,-7 z"
       id="path7-4-4-2-7" />
  </g>
</svg>
